<svg width="309" height="82" viewBox="0 0 309 82" fill="none" xmlns="http://www.w3.org/2000/svg">
<g clip-path="url(#clip0_39_1165)">
<path d="M6.98359 54.2178L12.926 54.2686H14.6528L15.2877 54.2178L23.668 54.3702C25.1663 54.4718 25.9789 55.386 26.1567 57.1383C26.2329 57.8239 26.3091 58.535 26.4107 59.2206C26.6392 60.8713 27.8328 61.7093 30.0167 61.7093C32.2007 61.7093 33.572 60.6935 34.1561 58.6366C34.5878 57.0621 34.791 55.1575 34.791 52.9735V51.6784H34.6386L34.4354 44.644C34.3085 40.0475 34.2323 33.2417 34.2323 24.2519C34.2323 15.2621 34.3085 8.73566 34.4354 4.69788L34.3846 4.64709C34.3846 4.39314 34.4862 4.18998 34.6894 4.06301L35.3242 3.96143L37.7622 4.01222H55.9195L59.5509 3.96143H64.4014C64.6553 3.96143 64.8585 4.1138 64.9854 4.41853C64.9093 5.15498 64.8839 6.24696 64.8839 7.74526V8.5325L64.8331 9.37053L64.7315 11.91C64.5029 18.1825 64.376 27.5279 64.376 39.8951V45.355C64.376 50.0277 64.376 53.9131 64.3252 57.0367C64.2744 60.1602 63.5125 63.2838 62.0142 66.4074C60.5159 69.5309 58.6367 72.0196 56.3512 73.8989C54.0911 75.7781 51.4754 77.3018 48.4788 78.5461C43.222 80.7047 37.7368 81.7713 32.0229 81.7713C26.3091 81.7713 21.5348 81.1872 17.7002 80.0444C14.2973 79.181 11.4785 77.8605 9.24373 76.1082C7.00898 74.3306 5.28213 72.6545 4.06318 71.08C1.39672 67.474 0.0507897 63.0807 0.0507897 57.8493V56.5542L0 55.9701C0 54.675 0.203159 54.0401 0.584082 54.0401L6.98359 54.2432V54.2178Z" fill="black"/>
<path d="M70.8767 41.5716L70.9783 40.4796C71.3846 36.3402 71.8925 32.6834 72.5528 29.4836C73.213 26.2839 74.2796 23.3127 75.7779 20.5192C79.3078 14.3991 84.2598 9.7772 90.5831 6.60284C96.9064 3.45388 103.738 1.854 111.077 1.854C118.416 1.854 125.044 3.32691 131.037 6.27271C134.618 8.02495 137.411 10.2343 139.417 12.9262C143.277 17.7512 145.842 22.1953 147.061 26.2585C148.28 30.3216 148.89 35.0197 148.89 40.3526C148.89 52.1866 146.452 61.2272 141.551 67.4235L139.265 70.4455C136.192 74.0262 131.85 76.7688 126.212 78.6989C120.574 80.6289 115.013 81.6446 109.502 81.6954C100.055 81.6954 92.2846 79.7146 86.2406 75.753C75.9811 69.0996 70.8767 57.6973 70.8767 41.5208V41.5716ZM99.3951 41.1652C99.3951 41.1652 99.3951 41.2922 99.3443 41.4192V41.5716C99.2174 42.9683 99.1412 44.5174 99.1412 46.2442C99.1412 47.9711 99.2936 49.7741 99.5729 51.7041C99.8522 53.6341 100.309 55.5387 100.97 57.4687C101.604 59.3988 102.62 60.9478 103.966 62.1414C105.414 63.4111 107.039 64.0206 108.842 64.0206C110.645 64.0206 112.169 63.7667 113.413 63.2588C114.657 62.7509 115.699 62.0906 116.537 61.3034C117.375 60.5161 118.111 59.4242 118.746 58.0782C120.32 54.4722 121.133 48.8853 121.133 41.3176C121.133 33.75 120.244 28.2139 118.492 25.1157C116.714 22.0175 114.048 20.4684 110.493 20.4684C108.715 20.4684 107.141 20.9001 105.795 21.7636C104.449 22.627 103.458 23.5158 102.773 24.43C102.087 25.3442 101.401 27.325 100.69 30.3216C99.9792 33.3436 99.6237 36.1117 99.6237 38.6512L99.4205 41.1906L99.3951 41.1652Z" fill="black"/>
<path d="M170.958 3.09816L177.256 2.99658C182.31 2.99658 184.849 3.17435 184.849 3.52987C184.773 3.65685 184.748 3.83461 184.748 4.06317C184.291 5.18054 183.707 6.78042 183.021 8.86279C182.335 10.9452 181.878 12.2657 181.675 12.8244L180.228 16.8368C177.815 24.0743 175.783 29.7628 174.133 33.9021C172.736 34.9941 169.409 35.5274 164.153 35.5274H159.632L158.997 35.5782H155.62C154.096 35.5782 153.207 35.4512 152.953 35.1719C152.953 35.1719 152.369 34.8671 152.801 33.0641C152.953 32.4546 153.08 31.9721 153.157 31.642L155.036 24.7092C154.909 24.6838 160.597 6.52647 161.131 3.07277C161.537 3.04737 162.045 3.02198 162.705 3.02198H170.933L170.958 3.09816Z" fill="black"/>
<path d="M189.776 58.383L216.009 57.9259C216.669 57.9259 217.228 58.4846 217.659 59.602C218.116 60.7193 218.548 61.6081 218.98 62.2684C219.996 63.8429 221.697 64.6555 224.059 64.6555C226.421 64.6555 228.325 64.0968 229.798 63.0049C231.246 61.8875 231.982 60.4654 231.982 58.7131C231.982 56.9609 231.525 55.7673 230.636 55.1071C229.747 54.4468 228.757 53.8373 227.716 53.2278C226.649 52.6184 225.1 52.1359 223.018 51.8057C220.961 51.4756 219.818 51.2724 219.615 51.2216H219.716L216.897 50.4852C215.069 50.1551 213.545 49.7995 212.326 49.3932C204.429 47.2854 198.715 44.619 195.185 41.4192C191.655 38.2195 189.903 33.9024 189.903 28.4679C189.903 24.5317 190.639 21.0018 192.087 17.8528C193.534 14.7038 195.439 12.139 197.801 10.1582C204.581 4.44433 213.926 1.57471 225.862 1.57471C235.36 1.57471 242.8 3.30156 248.235 6.72986H248.184C251.663 9.24395 254.025 11.7073 255.32 14.1452C256.615 16.5831 257.428 19.5797 257.758 23.1349L256.463 24.4301C247.778 24.7602 240.058 24.938 233.353 24.938C231.347 24.938 230.128 24.3539 229.722 23.1603C229.544 22.6524 229.366 22.1699 229.189 21.662C228.731 20.4685 227.233 19.8844 224.719 19.8844H224.516C222.561 19.8844 220.884 20.3415 219.513 21.2557C218.116 22.1699 217.431 23.0588 217.405 23.8968C217.405 24.7602 217.583 25.4713 217.939 26.03C218.32 26.5886 218.726 27.0457 219.158 27.3759C219.589 27.706 220.25 28.0361 221.138 28.3917C222.027 28.7472 222.713 28.9758 223.145 29.0773C223.602 29.2043 224.287 29.3821 225.252 29.636L226.979 30.0931C227.665 30.2963 229.696 30.7788 233.049 31.5914C236.401 32.4041 239.194 33.1405 241.454 33.877V33.8262C248.489 36.2133 253.314 39.1845 255.853 42.7398C258.418 46.295 259.688 50.4344 259.688 55.1579C259.688 67.7537 252.171 75.9308 237.112 79.6639C232.744 80.7559 228.097 81.5431 223.119 82.0002C217.024 82.0002 211.006 81.1114 205.063 79.3338C199.121 77.5561 195.134 74.6357 193.102 70.5979C191.757 68.6425 190.842 66.8649 190.385 65.2142C189.928 63.5636 189.547 61.278 189.242 58.3322C189.344 58.3576 189.496 58.383 189.7 58.383H189.776Z" fill="black"/>
<path d="M302.935 38.0669C297.805 44.0093 291.533 46.9805 284.117 46.9805C280.232 46.9805 276.118 45.7615 271.826 43.349C266.951 40.327 263.573 35.4258 261.668 28.6962C261.211 26.9947 260.856 25.2933 260.627 23.541C260.907 17.0145 263.065 11.6054 267.103 7.31371C269.312 4.95199 271.979 3.12356 275.077 1.90461C278.175 0.660258 281.248 0.0507812 284.295 0.0507812C287.343 0.0507812 290.288 0.660258 293.183 1.90461C296.053 3.14895 298.567 4.82502 300.7 6.93279C302.833 9.04056 304.586 11.58 305.932 14.5259C307.278 17.4717 308.014 20.5952 308.166 23.8966C308.116 26.4868 307.633 29.0263 306.719 31.515C305.805 34.0037 304.56 36.2131 302.96 38.1177L302.935 38.0669ZM284.651 5.81541H284.244C281.832 5.81541 279.521 6.32331 277.337 7.31371C275.128 8.30411 273.248 9.67543 271.623 11.4277C270.023 13.1545 268.881 14.8814 268.22 16.6082C267.56 18.3351 267.052 20.4936 266.722 23.1093C266.722 26.1821 267.509 29.1025 269.084 31.8451C270.658 34.5878 272.791 36.7971 275.458 38.4478C278.124 40.0985 280.816 40.9365 283.508 40.9365C286.2 40.9365 288.638 40.454 290.796 39.5144C292.955 38.5748 294.859 37.2796 296.459 35.6798C298.059 34.0799 299.354 32.0991 300.345 29.8136C301.31 27.528 301.818 25.1663 301.818 22.7284C301.818 20.2905 301.361 18.0557 300.421 15.9988C299.481 13.9418 298.237 12.1641 296.688 10.7166C295.139 9.24372 293.31 8.07556 291.203 7.21213C289.12 6.32331 286.936 5.8662 284.676 5.84081L284.651 5.81541ZM293.742 26.2329H294.148L294.529 26.2075C295.418 26.2075 295.926 26.4106 296.053 26.7916C295.418 29.5596 294.123 31.8959 292.142 33.7498C290.187 35.6036 287.952 36.5432 285.463 36.5432C280.359 36.5432 276.626 34.5624 274.264 30.5754C272.944 28.366 272.258 25.8774 272.182 23.1347C272.334 20.7222 273.071 18.5382 274.34 16.532C275.636 14.5512 277.235 13.0022 279.165 11.9356C281.07 10.8436 283.102 10.3103 285.184 10.3103C288.104 10.3103 290.415 11.1483 292.168 12.799C293.92 14.4751 295.088 16.7098 295.698 19.5032C295.621 19.681 295.164 19.7572 294.326 19.7572H293.666L289.349 19.7318L289.12 19.5032C288.409 17.2939 286.987 16.2019 284.854 16.2019C282.086 16.2019 280.334 17.8018 279.623 21.0015C279.445 21.7634 279.369 22.576 279.369 23.3633C279.369 25.2171 279.8 26.7916 280.664 28.1121C281.527 29.4326 282.772 30.0675 284.397 30.0675C286.022 30.0675 287.063 29.6612 287.52 28.8485C288.231 27.5534 288.815 26.69 289.298 26.2583C289.831 26.2075 290.517 26.2075 291.406 26.2075H293.717L293.742 26.2329ZM295.774 19.5032V19.554H295.748L295.774 19.5032Z" fill="black"/>
</g>
<defs>
<clipPath id="clip0_39_1165">
<rect width="308.141" height="82" fill="white"/>
</clipPath>
</defs>
</svg>
